Coordinates
version=1
nRows=60
nColumns=12
inDegrees=yes

Units are S.I. units (second, meters, Newtons, ...)
Angles are in degrees

endheader
time	SC_y	SC_z	SC_x	AC_y	AC_z	AC_x	GH_y	GH_z	GH_yy	EL_x	PS_y
       0.0              -29.03          38.92          78.14           52.7         -2.669          11.63          55.96          61.84          28.98          40.22          116.1
   0.02819              -29.03          38.91          78.13           52.7          -2.67          11.63          55.95          61.84          28.99          40.23          116.1
   0.05638              -29.03          38.91          78.12           52.7         -2.671          11.63          55.93          61.84           29.0          40.24          116.1
   0.08457              -29.03          38.91          78.11          52.71         -2.672          11.63          55.92          61.84          29.01          40.26          116.2
    0.1128              -29.03           38.9           78.1          52.71         -2.673          11.63          55.91          61.83          29.02          40.27          116.2
     0.141              -29.03           38.9          78.09          52.71         -2.674          11.63          55.89          61.83          29.04          40.28          116.2
    0.1691              -29.03          38.89          78.08          52.71         -2.676          11.63          55.88          61.83          29.05           40.3          116.2
    0.1973              -29.03          38.89          78.07          52.71         -2.677          11.63          55.86          61.83          29.07          40.32          116.2
    0.2255              -29.03          38.88          78.05          52.72         -2.679          11.63          55.84          61.83          29.09          40.34          116.2
    0.2537              -29.03          38.88          78.04          52.72          -2.68          11.63          55.82          61.83           29.1          40.36          116.2
    0.2819              -29.03          38.87          78.02          52.72         -2.682          11.62           55.8          61.82          29.12          40.38          116.2
    0.3101              -29.02          38.86          78.01          52.72         -2.684          11.62          55.78          61.82          29.14           40.4          116.2
    0.3383              -29.02          38.85          77.99          52.73         -2.686          11.62          55.76          61.82          29.17          40.43          116.2
    0.3665              -29.02          38.85          77.97          52.73         -2.688          11.62          55.73          61.82          29.19          40.45          116.3
    0.3947              -29.02          38.84          77.95          52.73          -2.69          11.62           55.7          61.81          29.22          40.48          116.3
    0.4229              -29.02          38.83          77.93          52.74         -2.693          11.62          55.67          61.81          29.24          40.52          116.3
    0.4511              -29.02          38.82           77.9          52.74         -2.696          11.62          55.64          61.81          29.28          40.55          116.3
    0.4792              -29.02           38.8          77.87          52.74         -2.699          11.62           55.6          61.81          29.31          40.59          116.3
    0.5074              -29.02          38.79          77.85          52.75         -2.702          11.61          55.56           61.8          29.35          40.63          116.3
    0.5356              -29.01          38.78          77.81          52.76         -2.706          11.61          55.52           61.8          29.39          40.67          116.4
    0.5638              -29.01          38.76          77.78          52.76          -2.71          11.61          55.47          61.79          29.43          40.72          116.4
     0.592              -29.01          38.75          77.74          52.77         -2.714          11.61          55.42          61.79          29.48          40.78          116.4
    0.6202              -29.01          38.73           77.7          52.77         -2.719           11.6          55.36          61.78          29.53          40.84          116.4
    0.6484               -29.0          38.71          77.65          52.78         -2.725           11.6           55.3          61.78          29.59           40.9          116.5
    0.6766               -29.0          38.68           77.6          52.79         -2.731           11.6          55.23          61.77          29.66          40.98          116.5
    0.7048               -29.0          38.66          77.54           52.8         -2.737           11.6          55.15          61.76          29.73          41.06          116.5
     0.733               -29.0          38.63          77.47          52.81         -2.745          11.59          55.06          61.75          29.81          41.15          116.6
    0.7612              -28.99           38.6           77.4          52.82         -2.753          11.59          54.96          61.75          29.91          41.26          116.6
    0.7894              -28.99          38.56          77.31          52.84         -2.763          11.58          54.85          61.73          30.01          41.37          116.7
    0.8175              -28.98          38.52          77.22          52.85         -2.774          11.58          54.72          61.72          30.13          41.51          116.8
    0.8457              -28.98          38.47          77.11          52.87         -2.786          11.57          54.58          61.71          30.27          41.66          116.8
    0.8739              -28.97          38.42          76.99          52.89           -2.8          11.56          54.41          61.69          30.42          41.83          116.9
    0.9021              -28.96          38.36          76.84          52.91         -2.817          11.55          54.22          61.67           30.6          42.03          117.0
    0.9303              -28.95          38.28          76.68          52.94         -2.836          11.54          53.99          61.65          30.81          42.27          117.1
    0.9585              -28.94           38.2          76.48          52.97         -2.858          11.53          53.73          61.63          31.06          42.54          117.3
    0.9867              -28.93           38.1          76.25          53.01         -2.884          11.52          53.42           61.6          31.34          42.87          117.4
     1.015              -28.91          37.98          75.98          53.06         -2.916           11.5          53.05          61.57          31.69          43.25          117.6
     1.043               -28.9          37.84          75.65          53.11         -2.953          11.48          52.61          61.52           32.1          43.71          117.8
     1.071              -28.87          37.67          75.25          53.18         -2.998          11.46          52.08          61.47           32.6          44.27          118.1
     1.099              -28.85          37.46          74.77          53.26         -3.054          11.43          51.43          61.41           33.2          44.95          118.4
     1.128              -28.82           37.2          74.17          53.36         -3.122          11.39          50.62          61.34          33.95          45.78          118.8
     1.156              -28.77          36.88          73.42          53.48         -3.207          11.35          49.62          61.24          34.89          46.83          119.3
     1.184              -28.72          36.47          72.48          53.63         -3.315          11.29          48.36          61.12          36.07          48.15          120.0
     1.212              -28.66          35.95          71.29          53.83         -3.451          11.22          46.75          60.97          37.56          49.82          120.8
      1.24              -28.57          35.29          69.76          54.08         -3.626          11.13           44.7          60.78          39.48          51.97          121.8
     1.269              -28.47          34.44           67.8          54.41          -3.85          11.01          42.06          60.53          41.94          54.72          123.1
     1.297              -28.33          33.35          65.29          54.82         -4.136          10.86          38.69          60.21          45.08          58.24          124.8
     1.325              -28.16          31.99          62.14          55.34         -4.496          10.67          34.45          59.81          49.03          62.65          127.0
     1.353              -27.95          30.32          58.29          55.97         -4.935          10.44          29.29          59.33          53.85          68.04          129.6
     1.381              -27.71           28.4          53.84           56.7         -5.443          10.17          23.31          58.76          59.43          74.28          132.6
      1.41              -27.44          26.31          49.02           57.5         -5.994          9.881          16.83          58.15          65.47          81.04          135.8
     1.438              -27.18          24.22           44.2          58.29         -6.545          9.591          10.35          57.54          71.52           87.8          139.1
     1.466              -26.94          22.29          39.75          59.03         -7.053          9.323          4.365          56.98           77.1          94.05          142.1
     1.494              -26.73          20.63           35.9          59.66         -7.492          9.093        -0.7972          56.49          81.91          99.43          144.7
     1.522              -26.56          19.26          32.75          60.18         -7.852          8.903         -5.033           56.1          85.86          103.9          146.8
     1.551              -26.42          18.18          30.24          60.59         -8.138          8.752         -8.402          55.78           89.0          107.4          148.5
     1.579              -26.31          17.33          28.28          60.92         -8.362          8.634         -11.04          55.53          91.46          110.1          149.9
     1.607              -26.23          16.67          26.75          61.17         -8.537          8.542         -13.09          55.34          93.38          112.3          150.9
     1.635              -26.16          16.15          25.56          61.36         -8.673          8.471          -14.7          55.18          94.88          113.9          151.7
     1.663              -26.11          15.74          24.62          61.52         -8.781          8.414         -15.96          55.07          96.06          115.3          152.4
